<svg xmlns="http://www.w3.org/2000/svg" width="14" height="14" viewBox="0 0 14 14">
  <defs>
    <style>
      .cls-1 {
        fill: #fff;
        fill-rule: evenodd;
      }
    </style>
  </defs>
  <path id="Чербокс_вкл._" data-name="Чербокс вкл. " class="cls-1" d="M47.146,290.014H58.854a4.16,4.16,0,0,1,4.161,4.16v11.651a4.161,4.161,0,0,1-4.161,4.161H47.146a4.161,4.161,0,0,1-4.161-4.161V294.174A4.16,4.16,0,0,1,47.146,290.014ZM47,291H59a3,3,0,0,1,3,3v12a3,3,0,0,1-3,3H47a3,3,0,0,1-3-3V294A3,3,0,0,1,47,291Zm12.369,5.955-5.93,5.931h0l-1.765,1.766,0,0,0,0-1.765-1.766h0l-3.07-3.07,1.765-1.765,3.07,3.07L57.6,295.19Z" transform="translate(-46 -293)"/>
</svg>
